<?xml version="1.0" encoding="UTF-8"?>
<svg id="Layer_1" data-name="Layer 1" xmlns="http://www.w3.org/2000/svg" viewBox="0 0 612 792">
  <defs>
    <style>
      .cls-1 {
        stroke: #f3eee4;
      }

      .cls-1, .cls-2 {
        fill: #f3eee4;
      }

      .cls-3, .cls-4 {
        fill: #205b1a;
      }

      .cls-5 {
        fill: #e8e8e8;
        stroke: #565454;
      }

      .cls-6 {
        fill: #d6dfea;
        stroke: #184587;
      }

      .cls-7 {
        fill: #dddce5;
        stroke: #5a2c96;
      }

      .cls-8 {
        fill: #efe1c5;
        stroke: #a57f16;
      }

      .cls-2, .cls-9, .cls-10, .cls-11, .cls-12, .cls-13, .cls-14 {
        stroke: #205b1a;
      }

      .cls-15 {
        fill: #5a2c96;
      }

      .cls-15, .cls-16, .cls-17, .cls-4, .cls-18, .cls-19, .cls-20, .cls-21, .cls-22, .cls-23, .cls-24, .cls-25 {
        font-size: 11px;
      }

      .cls-15, .cls-17, .cls-18, .cls-19, .cls-20, .cls-23, .cls-24, .cls-25 {
        font-weight: 700;
      }

      .cls-15, .cls-18, .cls-19, .cls-20, .cls-23, .cls-24, .cls-25 {
        font-family: Inter18pt-Bold, 'Inter 18pt';
      }

      .cls-9 {
        fill: #e6efda;
      }

      .cls-9, .cls-26, .cls-11, .cls-12, .cls-13 {
        stroke-linecap: round;
      }

      .cls-9, .cls-26, .cls-11, .cls-13 {
        stroke-linejoin: round;
      }

      .cls-16, .cls-4, .cls-21, .cls-22 {
        font-family: Inter18pt-Italic, 'Inter 18pt';
        font-style: italic;
      }

      .cls-16, .cls-20 {
        fill: #184587;
      }

      .cls-17 {
        font-family: Inter18pt-ExtraBold, 'Inter 18pt';
      }

      .cls-17, .cls-21, .cls-22 {
        fill: #1e1917;
      }

      .cls-4, .cls-27, .cls-18, .cls-19, .cls-20, .cls-22, .cls-24, .cls-25 {
        isolation: isolate;
      }

      .cls-18 {
        fill: #f4f1ea;
      }

      .cls-28 {
        letter-spacing: 0em;
      }

      .cls-19 {
        fill: #87681f;
      }

      .cls-29 {
        letter-spacing: 0em;
      }

      .cls-30 {
        letter-spacing: 0em;
      }

      .cls-31 {
        letter-spacing: 0em;
      }

      .cls-10 {
        fill: #2c5730;
      }

      .cls-26 {
        stroke: #1e1917;
      }

      .cls-26, .cls-12 {
        fill: none;
      }

      .cls-32 {
        fill: #e5bdba;
        stroke: #823027;
      }

      .cls-11 {
        fill: #b8d3ab;
      }

      .cls-12 {
        stroke-width: 1.6px;
      }

      .cls-33 {
        letter-spacing: -.09em;
      }

      .cls-34 {
        letter-spacing: -.06em;
      }

      .cls-35 {
        letter-spacing: -.06em;
      }

      .cls-36 {
        letter-spacing: -.03em;
      }

      .cls-37 {
        letter-spacing: -.02em;
      }

      .cls-38 {
        letter-spacing: -.02em;
      }

      .cls-39 {
        letter-spacing: -.02em;
      }

      .cls-40 {
        letter-spacing: -.02em;
      }

      .cls-41 {
        letter-spacing: -.02em;
      }

      .cls-42 {
        letter-spacing: -.02em;
      }

      .cls-43 {
        letter-spacing: -.02em;
      }

      .cls-44 {
        letter-spacing: -.02em;
      }

      .cls-45 {
        letter-spacing: -.02em;
      }

      .cls-46 {
        letter-spacing: -.02em;
      }

      .cls-47 {
        letter-spacing: -.01em;
      }

      .cls-48 {
        letter-spacing: -.02em;
      }

      .cls-49 {
        letter-spacing: -.03em;
      }

      .cls-50 {
        letter-spacing: -.03em;
      }

      .cls-51 {
        letter-spacing: -.01em;
      }

      .cls-52 {
        letter-spacing: 0em;
      }

      .cls-53 {
        letter-spacing: -.01em;
      }

      .cls-54 {
        letter-spacing: -.01em;
      }

      .cls-55 {
        letter-spacing: 0em;
      }

      .cls-23 {
        fill: #565454;
      }

      .cls-56 {
        letter-spacing: 0em;
      }

      .cls-57 {
        letter-spacing: 0em;
      }

      .cls-58 {
        letter-spacing: 0em;
      }

      .cls-59 {
        letter-spacing: 0em;
      }

      .cls-60 {
        letter-spacing: .02em;
      }

      .cls-61 {
        letter-spacing: .02em;
      }

      .cls-62 {
        letter-spacing: .02em;
      }

      .cls-63 {
        letter-spacing: .02em;
      }

      .cls-24 {
        fill: #823027;
      }

      .cls-25 {
        fill: #33632f;
      }

      .cls-13 {
        fill: #467c3c;
      }

      .cls-64 {
        letter-spacing: 0em;
      }

      .cls-65 {
        letter-spacing: 0em;
      }

      .cls-66 {
        letter-spacing: .01em;
      }

      .cls-67 {
        letter-spacing: .01em;
      }

      .cls-68 {
        letter-spacing: .01em;
      }

      .cls-69 {
        letter-spacing: 0em;
      }

      .cls-14 {
        fill: #d7e6d0;
      }

      .cls-70 {
        letter-spacing: 0em;
      }

      .cls-71 {
        letter-spacing: 0em;
      }
    </style>
  </defs>
  <g id="simple">
    <rect class="cls-1" width="612" height="792"/>
    <g>
      <text class="cls-17" transform="translate(37.71 32.24)"><tspan x="0" y="0">DÉVE</tspan><tspan class="cls-49" x="29.73" y="0">L</tspan><tspan class="cls-28" x="35.64" y="0">OPPEMENT SOCIAL ET DÉVE</tspan><tspan class="cls-49" x="190.31" y="0">L</tspan><tspan x="196.22" y="0">OPPEMENT DES COMMUN</tspan><tspan class="cls-36" x="338.5" y="0">A</tspan><tspan x="346.61" y="0">UTÉS </tspan><tspan class="cls-60" x="378.3" y="0">(</tspan><tspan x="382.63" y="0">DSDC)</tspan></text>
      <text class="cls-21" transform="translate(498.74 32.24)"><tspan x="0" y="0">Cad</tspan><tspan class="cls-43" x="21.26" y="0">r</tspan><tspan x="25.11" y="0">e simplifié</tspan></text>
      <line class="cls-26" y1="40.45" x2="612" y2="40.45"/>
      <g>
        <text class="cls-22" transform="translate(212.8 73.03)"><tspan x="0" y="0">Considé</tspan><tspan class="cls-48" x="41.97" y="0">r</tspan><tspan x="45.82" y="0">ant les enjeux t</tspan><tspan class="cls-48" x="123.21" y="0">r</tspan><tspan x="127.06" y="0">an</tspan><tspan class="cls-59" x="140.09" y="0">s</tspan><tspan class="cls-45" x="145.72" y="0">v</tspan><tspan x="151.57" y="0">ersaux</tspan></text>
        <path class="cls-32" d="M54.5,82.03h145c6.9,0,12.5,5.6,12.5,12.5h0c0,6.9-5.6,12.5-12.5,12.5H54.5c-6.9,0-12.5-5.6-12.5-12.5h0c0-6.9,5.6-12.5,12.5-12.5Z"/>
        <text class="cls-24" transform="translate(73.29 98.53)"><tspan class="cls-57" x="0" y="0">R</tspan><tspan x="7.14" y="0">appo</tspan><tspan class="cls-61" x="33.83" y="0">r</tspan><tspan class="cls-55" x="38.44" y="0">t</tspan><tspan x="42.39" y="0">s de pou</tspan><tspan class="cls-39" x="87.16" y="0">v</tspan><tspan x="93.44" y="0">oir</tspan></text>
        <path class="cls-32" d="M233.5,82.03h145c6.9,0,12.5,5.6,12.5,12.5h0c0,6.9-5.6,12.5-12.5,12.5h-145c-6.9,0-12.5-5.6-12.5-12.5h0c0-6.9,5.6-12.5,12.5-12.5Z"/>
        <text class="cls-24" transform="translate(235.07 98.53)"><tspan class="cls-34" x="0" y="0">T</tspan><tspan class="cls-51" x="6.6" y="0">r</tspan><tspan x="10.87" y="0">ans</tspan><tspan class="cls-46" x="30" y="0">f</tspan><tspan x="34.11" y="0">o</tspan><tspan class="cls-70" x="40.77" y="0">r</tspan><tspan x="45.25" y="0">mation numé</tspan><tspan class="cls-65" x="114.4" y="0">r</tspan><tspan x="118.86" y="0">ique</tspan></text>
        <path class="cls-32" d="M412.5,82.03h145c6.9,0,12.5,5.6,12.5,12.5h0c0,6.9-5.6,12.5-12.5,12.5h-145c-6.9,0-12.5-5.6-12.5-12.5h0c0-6.9,5.6-12.5,12.5-12.5Z"/>
        <text class="cls-24" transform="translate(415.68 98.53)"><tspan x="0" y="0">Changemen</tspan><tspan class="cls-55" x="64.45" y="0">t</tspan><tspan x="68.41" y="0">s climatiques</tspan></text>
        <text class="cls-22" transform="translate(112.39 126.03)"><tspan x="0" y="0">le d</tspan><tspan class="cls-45" x="18.43" y="0">év</tspan><tspan x="30.28" y="0">eloppement social (DS) ag</tspan><tspan class="cls-30" x="165.69" y="0">i</tspan><tspan x="168.29" y="0">t en amont sur les dé</tspan><tspan class="cls-56" x="275.56" y="0">t</tspan><tspan x="279.02" y="0">e</tspan><tspan class="cls-67" x="285.24" y="0">r</tspan><tspan x="289.38" y="0">minan</tspan><tspan class="cls-56" x="320.94" y="0">t</tspan><tspan x="324.4" y="0">s </tspan><tspan class="cls-30" x="333.09" y="0">s</tspan><tspan x="338.78" y="0">tructu</tspan><tspan class="cls-43" x="368.9" y="0">r</tspan><tspan x="372.75" y="0">els</tspan></text>
        <rect class="cls-7" x="42" y="135.03" width="125.25" height="49" rx="14" ry="14"/>
        <text class="cls-15" transform="translate(82.72 151.53)"><tspan class="cls-35" x="0" y="0">V</tspan><tspan x="7.42" y="0">aleurs</tspan><tspan class="cls-50" x="40.35" y="0">,</tspan></text>
        <text class="cls-15" transform="translate(75.19 163.53)"><tspan x="0" y="0">c</tspan><tspan class="cls-40" x="6.39" y="0">r</tspan><tspan class="cls-39" x="10.57" y="0">o</tspan><tspan class="cls-53" x="17.04" y="0">y</tspan><tspan x="23.41" y="0">ances</tspan><tspan class="cls-50" x="55.41" y="0">,</tspan></text>
        <text class="cls-15" transform="translate(62.77 175.53)"><tspan x="0" y="0">cu</tspan><tspan class="cls-66" x="13.15" y="0">l</tspan><tspan x="16.21" y="0">tu</tspan><tspan class="cls-40" x="27" y="0">r</tspan><tspan x="31.18" y="0">e</tspan><tspan class="cls-50" x="37.65" y="0">,</tspan><tspan x="40.76" y="0" xml:space="preserve"> no</tspan><tspan class="cls-70" x="56.73" y="0">r</tspan><tspan x="61.21" y="0">mes</tspan></text>
        <rect class="cls-7" x="176.25" y="135.03" width="125.25" height="49" rx="14" ry="14"/>
        <text class="cls-15" transform="translate(203.1 163.53)"><tspan x="0" y="0">Gou</tspan><tspan class="cls-39" x="21.64" y="0">v</tspan><tspan x="27.92" y="0">e</tspan><tspan class="cls-70" x="34.39" y="0">r</tspan><tspan x="38.87" y="0">nance</tspan></text>
        <rect class="cls-7" x="310.5" y="135.03" width="125.25" height="49" rx="14" ry="14"/>
        <text class="cls-15" transform="translate(331.4 151.53)"><tspan x="0" y="0">Lois</tspan><tspan class="cls-50" x="21.85" y="0">,</tspan><tspan x="24.96" y="0" xml:space="preserve"> pol</tspan><tspan class="cls-29" x="43.96" y="0">i</tspan><tspan x="46.9" y="0">tiques</tspan><tspan class="cls-50" x="79.99" y="0">,</tspan></text>
        <text class="cls-15" transform="translate(341.35 163.53)"><tspan class="cls-40" x="0" y="0">r</tspan><tspan x="4.18" y="0">èglemen</tspan><tspan class="cls-55" x="50.09" y="0">t</tspan><tspan x="54.04" y="0">s</tspan><tspan class="cls-50" x="60.1" y="0">,</tspan></text>
        <text class="cls-15" transform="translate(351.22 175.53)"><tspan x="0" y="0">budge</tspan><tspan class="cls-55" x="33.79" y="0">t</tspan><tspan x="37.75" y="0">s</tspan></text>
        <rect class="cls-7" x="444.75" y="135.03" width="125.25" height="49" rx="14" ry="14"/>
        <text class="cls-15" transform="translate(480.63 157.53)"><tspan x="0" y="0">Mé</tspan><tspan class="cls-30" x="16.62" y="0">t</tspan><tspan x="20.68" y="0">hodes</tspan></text>
        <text class="cls-15" transform="translate(464.62 169.53)"><tspan x="0" y="0">in</tspan><tspan class="cls-30" x="9.68" y="0">s</tspan><tspan x="15.76" y="0">t</tspan><tspan class="cls-29" x="19.8" y="0">i</tspan><tspan x="22.74" y="0">tutionnelles</tspan></text>
        <text class="cls-22" transform="translate(175.2 203.03)"><tspan x="0" y="0">auquel la san</tspan><tspan class="cls-56" x="68.8" y="0">t</tspan><tspan x="72.26" y="0">é publique cont</tspan><tspan class="cls-71" x="151.17" y="0">r</tspan><tspan x="155.27" y="0">ibue par ses </tspan><tspan class="cls-48" x="220.97" y="0">r</tspan><tspan x="224.82" y="0">ôles de</tspan></text>
        <rect class="cls-6" x="42" y="212.03" width="106.73" height="57" rx="14" ry="14"/>
        <text class="cls-20" transform="translate(59.17 233.53)"><tspan x="0" y="0">Financement</tspan><tspan class="cls-50" x="69.28" y="0">,</tspan></text>
        <text class="cls-20" transform="translate(69.01 244.53)"><tspan x="0" y="0">soutien et</tspan></text>
        <text class="cls-20" transform="translate(47.21 255.53)"><tspan x="0" y="0">accom</tspan><tspan class="cls-69" x="35.73" y="0">p</tspan><tspan x="42.68" y="0">agnement</tspan></text>
        <rect class="cls-6" x="157.36" y="212.03" width="98.4" height="57" rx="14" ry="14"/>
        <g>
          <text class="cls-20" transform="translate(164.62 233.53)"><tspan x="0" y="0">D</tspan><tspan class="cls-39" x="7.89" y="0">év</tspan><tspan x="20.44" y="0">eloppement</tspan></text>
          <text class="cls-20" transform="translate(171.29 244.53)"><tspan x="0" y="0">et </tspan><tspan class="cls-69" x="13.05" y="0">p</tspan><tspan x="20.01" y="0">a</tspan><tspan class="cls-61" x="26.32" y="0">r</tspan><tspan class="cls-64" x="30.94" y="0">t</tspan><tspan x="35.04" y="0">age de</tspan></text>
          <text class="cls-20" transform="translate(166.6 255.53)"><tspan x="0" y="0">connaissances</tspan></text>
        </g>
        <rect class="cls-6" x="263.9" y="212.03" width="98.4" height="57" rx="14" ry="14"/>
        <text class="cls-20" transform="translate(281.64 228.03)"><tspan x="0" y="0">Influence et</tspan></text>
        <text class="cls-20" transform="translate(273.43 239.03)"><tspan x="0" y="0">t</tspan><tspan class="cls-51" x="4.03" y="0">r</tspan><tspan x="8.3" y="0">ans</tspan><tspan class="cls-46" x="27.44" y="0">f</tspan><tspan x="31.54" y="0">o</tspan><tspan class="cls-70" x="38.2" y="0">r</tspan><tspan x="42.68" y="0">mation</tspan></text>
        <text class="cls-20" transform="translate(275.9 250.03)"><tspan x="0" y="0">des pol</tspan><tspan class="cls-29" x="38.38" y="0">i</tspan><tspan x="41.31" y="0">tiques</tspan></text>
        <text class="cls-20" transform="translate(286.88 261.03)"><tspan x="0" y="0">publiques</tspan></text>
        <rect class="cls-6" x="370.78" y="212.03" width="93.34" height="57" rx="14" ry="14"/>
        <text class="cls-20" transform="translate(383.56 233.53)"><tspan class="cls-47" x="0" y="0">P</tspan><tspan x="6.93" y="0">a</tspan><tspan class="cls-61" x="13.25" y="0">r</tspan><tspan x="17.86" y="0">tici</tspan><tspan class="cls-69" x="34.13" y="0">p</tspan><tspan x="41.08" y="0">ation</tspan></text>
        <text class="cls-20" transform="translate(384.68 244.53)"><tspan x="0" y="0">c</tspan><tspan class="cls-29" x="6.39" y="0">i</tspan><tspan class="cls-52" x="9.33" y="0">t</tspan><tspan class="cls-39" x="13.26" y="0">oy</tspan><tspan x="26.03" y="0">enne et</tspan></text>
        <text class="cls-20" transform="translate(393.37 255.53)"><tspan x="0" y="0">inclusion</tspan></text>
        <rect class="cls-6" x="471.6" y="212.03" width="98.4" height="57" rx="14" ry="14"/>
        <g>
          <text class="cls-20" transform="translate(484.18 233.53)"><tspan x="0" y="0">Conce</tspan><tspan class="cls-61" x="34.39" y="0">r</tspan><tspan class="cls-64" x="39" y="0">t</tspan><tspan x="43.1" y="0">ation</tspan><tspan class="cls-50" x="69.79" y="0">,</tspan></text>
          <text class="cls-20" transform="translate(485.95 244.53)"><tspan x="0" y="0">collabo</tspan><tspan class="cls-51" x="38.74" y="0">r</tspan><tspan x="43" y="0">ation</tspan></text>
          <text class="cls-20" transform="translate(481.77 255.53)"><tspan x="0" y="0">et mobilisation</tspan></text>
        </g>
        <text class="cls-22" transform="translate(99.52 300.03)"><tspan x="0" y="0">et p</tspan><tspan class="cls-48" x="19.42" y="0">r</tspan><tspan x="23.27" y="0">odu</tspan><tspan class="cls-30" x="42.76" y="0">i</tspan><tspan x="45.37" y="0">t les cond</tspan><tspan class="cls-30" x="95.1" y="0">i</tspan><tspan x="97.71" y="0">tions </tspan><tspan class="cls-48" x="125.42" y="0">r</tspan><tspan x="129.26" y="0">equises pour le d</tspan><tspan class="cls-45" x="216.62" y="0">év</tspan><tspan x="228.46" y="0">eloppement des communau</tspan><tspan class="cls-56" x="371.02" y="0">t</tspan><tspan class="cls-28" x="374.48" y="0">és (DC)</tspan></text>
        <rect class="cls-14" x="42" y="309.03" width="170" height="35" rx="14" ry="14"/>
        <text class="cls-25" transform="translate(80.97 325.03)"><tspan x="0" y="0">Cond</tspan><tspan class="cls-29" x="28.38" y="0">i</tspan><tspan x="31.32" y="0">tions de vie</tspan></text>
        <text class="cls-25" transform="translate(98.97 336.03)"><tspan class="cls-45" x="0" y="0">f</tspan><tspan class="cls-39" x="4.1" y="0">av</tspan><tspan x="16.5" y="0">o</tspan><tspan class="cls-51" x="23.17" y="0">r</tspan><tspan x="27.43" y="0">ables</tspan></text>
        <rect class="cls-14" x="221" y="309.03" width="170" height="35" rx="14" ry="14"/>
        <text class="cls-25" transform="translate(234.42 325.03)"><tspan x="0" y="0">D</tspan><tspan class="cls-39" x="7.89" y="0">év</tspan><tspan x="20.44" y="0">eloppement du pou</tspan><tspan class="cls-39" x="122.88" y="0">v</tspan><tspan x="129.16" y="0">oir</tspan></text>
        <text class="cls-25" transform="translate(290.54 336.03)"><tspan x="0" y="0">d&apos;agir</tspan></text>
        <rect class="cls-14" x="400" y="309.03" width="170" height="35" rx="14" ry="14"/>
        <text class="cls-25" transform="translate(440.72 330.53)"><tspan x="0" y="0">Inclusion sociale</tspan></text>
        <text class="cls-4" transform="translate(165.58 356.03)"><tspan x="0" y="0">qui sont à la </tspan><tspan class="cls-37" x="65.63" y="0">f</tspan><tspan x="69.3" y="0">ois des p</tspan><tspan class="cls-48" x="115.2" y="0">r</tspan><tspan x="119.04" y="0">éalables, p</tspan><tspan class="cls-48" x="174.83" y="0">r</tspan><tspan x="178.67" y="0">ocessus et </tspan><tspan class="cls-48" x="236.77" y="0">r</tspan><tspan x="240.61" y="0">ésu</tspan><tspan class="cls-66" x="258.9" y="0">l</tspan><tspan class="cls-56" x="261.62" y="0">t</tspan><tspan x="265.08" y="0">a</tspan><tspan class="cls-56" x="271.71" y="0">t</tspan><tspan x="275.17" y="0">s</tspan></text>
        <text class="cls-22" transform="translate(128.99 376.03)"><tspan x="0" y="0">que le DC </tspan><tspan class="cls-48" x="52.95" y="0">r</tspan><tspan x="56.8" y="0">en</tspan><tspan class="cls-37" x="69.41" y="0">f</tspan><tspan x="73.08" y="0">o</tspan><tspan class="cls-48" x="79.55" y="0">r</tspan><tspan x="83.4" y="0">ce à son </tspan><tspan class="cls-56" x="130.01" y="0">t</tspan><tspan x="133.47" y="0">our en mobilisant les acti</tspan><tspan class="cls-42" x="261.12" y="0">f</tspan><tspan x="264.81" y="0">s de son </tspan><tspan class="cls-56" x="310.92" y="0">t</tspan><tspan class="cls-31" x="314.38" y="0">e</tspan><tspan class="cls-68" x="320.59" y="0">r</tspan><tspan class="cls-71" x="324.74" y="0">r</tspan><tspan class="cls-30" x="328.83" y="0">i</tspan><tspan class="cls-56" x="331.44" y="0">t</tspan><tspan x="334.9" y="0">oi</tspan><tspan class="cls-43" x="343.95" y="0">r</tspan><tspan class="cls-28" x="347.8" y="0">e</tspan></text>
        <rect class="cls-8" x="42" y="386.03" width="125.25" height="46" rx="14" ry="14"/>
        <text class="cls-19" transform="translate(62.41 407.53)"><tspan x="0" y="0">Cap</tspan><tspan class="cls-29" x="21.27" y="0">i</tspan><tspan class="cls-64" x="24.21" y="0">t</tspan><tspan x="28.31" y="0">al social et</tspan></text>
        <text class="cls-19" transform="translate(60.13 418.53)"><tspan x="0" y="0">cohésion sociale</tspan></text>
        <rect class="cls-8" x="176.25" y="386.03" width="125.25" height="46" rx="14" ry="14"/>
        <text class="cls-19" transform="translate(202.65 402.03)"><tspan x="0" y="0">L</tspan><tspan class="cls-69" x="6.2" y="0">e</tspan><tspan x="12.77" y="0">adership et</tspan></text>
        <text class="cls-19" transform="translate(215.97 413.03)"><tspan class="cls-69" x="0" y="0">c</tspan><tspan x="6.49" y="0">a</tspan><tspan class="cls-69" x="12.81" y="0">p</tspan><tspan x="19.77" y="0">ac</tspan><tspan class="cls-29" x="32.47" y="0">i</tspan><tspan class="cls-52" x="35.41" y="0">t</tspan><tspan x="39.34" y="0">é</tspan></text>
        <text class="cls-19" transform="translate(192.88 424.03)"><tspan x="0" y="0">o</tspan><tspan class="cls-40" x="6.67" y="0">r</tspan><tspan x="10.84" y="0">ganisationnelle</tspan></text>
        <rect class="cls-8" x="310.5" y="386.03" width="125.25" height="46" rx="14" ry="14"/>
        <text class="cls-19" transform="translate(349.81 407.53)"><tspan x="0" y="0">S</tspan><tspan class="cls-39" x="7.2" y="0">av</tspan><tspan x="19.6" y="0">oir et</tspan></text>
        <text class="cls-19" transform="translate(335.05 418.53)"><tspan x="0" y="0">app</tspan><tspan class="cls-40" x="20.02" y="0">r</tspan><tspan x="24.2" y="0">entissage</tspan></text>
        <rect class="cls-8" x="444.75" y="386.03" width="125.25" height="46" rx="14" ry="14"/>
        <text class="cls-19" transform="translate(469.77 407.53)"><tspan class="cls-47" x="0" y="0">R</tspan><tspan x="7.05" y="0">essou</tspan><tspan class="cls-40" x="39.06" y="0">r</tspan><tspan x="43.24" y="0">ces et</tspan></text>
        <text class="cls-19" transform="translate(485.03 418.53)"><tspan x="0" y="0">maillage</tspan></text>
        <text class="cls-22" transform="translate(201.11 743.03)"><tspan x="0" y="0">le </tspan><tspan class="cls-56" x="11.81" y="0">t</tspan><tspan x="15.27" y="0">out documen</tspan><tspan class="cls-56" x="82.55" y="0">t</tspan><tspan x="86.01" y="0">é, app</tspan><tspan class="cls-71" x="118.12" y="0">r</tspan><tspan x="122.22" y="0">is et aju</tspan><tspan class="cls-30" x="161.91" y="0">s</tspan><tspan class="cls-56" x="167.6" y="0">t</tspan><tspan x="171.06" y="0">é par la</tspan></text>
        <path class="cls-5" d="M54.5,752.03h503c6.9,0,12.5,5.6,12.5,12.5h0c0,6.9-5.6,12.5-12.5,12.5H54.5c-6.9,0-12.5-5.6-12.5-12.5h0c0-6.9,5.6-12.5,12.5-12.5Z"/>
        <g class="cls-27">
          <text class="cls-23" transform="translate(242.08 768.53)"><tspan class="cls-47" x="0" y="0">R</tspan><tspan x="7.05" y="0">eche</tspan><tspan class="cls-40" x="33.13" y="0">r</tspan><tspan x="37.31" y="0">che et </tspan><tspan class="cls-39" x="72.53" y="0">é</tspan><tspan class="cls-53" x="78.79" y="0">v</tspan><tspan x="85.15" y="0">aluation</tspan></text>
        </g>
        <text class="cls-22" transform="translate(93.55 451.8)"><tspan class="cls-48" x="0" y="0">r</tspan><tspan x="3.85" y="0">endant possible l</tspan><tspan class="cls-35" x="90.73" y="0">’</tspan><tspan x="93.12" y="0">action in</tspan><tspan class="cls-56" x="136.95" y="0">t</tspan><tspan x="140.41" y="0">ersec</tspan><tspan class="cls-56" x="168.69" y="0">t</tspan><tspan x="172.15" y="0">o</tspan><tspan class="cls-71" x="178.62" y="0">r</tspan><tspan x="182.72" y="0">ielle et mu</tspan><tspan class="cls-66" x="234.65" y="0">l</tspan><tspan x="237.37" y="0">ti</tspan><tspan class="cls-48" x="243.52" y="0">r</tspan><tspan x="247.37" y="0">éseau, où les pa</tspan><tspan class="cls-63" x="331.15" y="0">r</tspan><tspan x="335.33" y="0">ties p</tspan><tspan class="cls-43" x="363.01" y="0">r</tspan><tspan class="cls-28" x="366.86" y="0">enan</tspan><tspan class="cls-56" x="392.5" y="0">t</tspan><tspan x="395.96" y="0">es</tspan></text>
        <path class="cls-2" d="M54.5,460.8h100.25c6.9,0,12.5,5.6,12.5,12.5h0c0,6.9-5.6,12.5-12.5,12.5H54.5c-6.9,0-12.5-5.6-12.5-12.5h0c0-6.9,5.6-12.5,12.5-12.5Z"/>
        <text class="cls-25" transform="translate(74.58 477.3)"><tspan x="0" y="0">In</tspan><tspan class="cls-30" x="9.79" y="0">s</tspan><tspan x="15.88" y="0">t</tspan><tspan class="cls-29" x="19.91" y="0">i</tspan><tspan x="22.85" y="0">tutions</tspan></text>
        <path class="cls-2" d="M188.75,460.8h100.25c6.9,0,12.5,5.6,12.5,12.5h0c0,6.9-5.6,12.5-12.5,12.5h-100.25c-6.9,0-12.5-5.6-12.5-12.5h0c0-6.9,5.6-12.5,12.5-12.5Z"/>
        <text class="cls-25" transform="translate(225.27 477.3)"><tspan class="cls-58" x="0" y="0">P</tspan><tspan class="cls-65" x="7.08" y="0">r</tspan><tspan x="11.53" y="0">i</tspan><tspan class="cls-39" x="14.45" y="0">v</tspan><tspan x="20.74" y="0">é</tspan></text>
        <path class="cls-2" d="M323,460.8h100.25c6.9,0,12.5,5.6,12.5,12.5h0c0,6.9-5.6,12.5-12.5,12.5h-100.25c-6.9,0-12.5-5.6-12.5-12.5h0c0-6.9,5.6-12.5,12.5-12.5Z"/>
        <text class="cls-25" transform="translate(330.49 477.3)"><tspan x="0" y="0">Communau</tspan><tspan class="cls-64" x="61.28" y="0">t</tspan><tspan x="65.38" y="0">ai</tspan><tspan class="cls-40" x="74.62" y="0">r</tspan><tspan x="78.8" y="0">e</tspan></text>
        <path class="cls-2" d="M457.25,460.8h100.25c6.9,0,12.5,5.6,12.5,12.5h0c0,6.9-5.6,12.5-12.5,12.5h-100.25c-6.9,0-12.5-5.6-12.5-12.5h0c0-6.9,5.6-12.5,12.5-12.5Z"/>
        <text class="cls-25" transform="translate(473.79 477.3)"><tspan x="0" y="0">C</tspan><tspan class="cls-29" x="8.1" y="0">i</tspan><tspan class="cls-52" x="11.04" y="0">t</tspan><tspan class="cls-39" x="14.97" y="0">oy</tspan><tspan x="27.75" y="0">en·ne·s</tspan></text>
        <text class="cls-22" transform="translate(251.85 504.8)"><tspan x="0" y="0">cocon</tspan><tspan class="cls-30" x="31.68" y="0">s</tspan><tspan x="37.38" y="0">truisent par la</tspan></text>
        <rect class="cls-9" x="42" y="513.8" width="170" height="37" rx="14" ry="14"/>
        <text class="cls-25" transform="translate(91.22 530.3)"><tspan x="0" y="0">Gou</tspan><tspan class="cls-39" x="21.64" y="0">v</tspan><tspan x="27.92" y="0">e</tspan><tspan class="cls-70" x="34.39" y="0">r</tspan><tspan x="38.87" y="0">nance</tspan></text>
        <text class="cls-25" transform="translate(92.49 542.3)"><tspan x="0" y="0">collabo</tspan><tspan class="cls-51" x="38.74" y="0">r</tspan><tspan x="43" y="0">ati</tspan><tspan class="cls-39" x="56.27" y="0">v</tspan><tspan x="62.56" y="0">e</tspan></text>
        <rect class="cls-9" x="221" y="513.8" width="170" height="37" rx="14" ry="14"/>
        <text class="cls-25" transform="translate(271.1 536.3)"><tspan x="0" y="0">Conce</tspan><tspan class="cls-61" x="34.39" y="0">r</tspan><tspan class="cls-64" x="39" y="0">t</tspan><tspan x="43.1" y="0">ation</tspan></text>
        <rect class="cls-9" x="400" y="513.8" width="170" height="37" rx="14" ry="14"/>
        <text class="cls-25" transform="translate(423.59 536.3)"><tspan class="cls-47" x="0" y="0">P</tspan><tspan x="6.93" y="0">a</tspan><tspan class="cls-61" x="13.25" y="0">r</tspan><tspan x="17.86" y="0">tici</tspan><tspan class="cls-69" x="34.13" y="0">p</tspan><tspan x="41.08" y="0">ation c</tspan><tspan class="cls-29" x="76.72" y="0">i</tspan><tspan class="cls-52" x="79.66" y="0">t</tspan><tspan class="cls-39" x="83.59" y="0">oy</tspan><tspan x="96.36" y="0">enne</tspan></text>
        <text class="cls-22" transform="translate(260.16 569.8)"><tspan x="0" y="0">pour a</tspan><tspan class="cls-67" x="33.16" y="0">r</tspan><tspan class="cls-71" x="37.31" y="0">r</tspan><tspan x="41.41" y="0">i</tspan><tspan class="cls-45" x="43.99" y="0">v</tspan><tspan x="49.83" y="0">er à une</tspan></text>
        <path class="cls-11" d="M54.5,578.8h229.45c6.9,0,12.5,5.6,12.5,12.5h0c0,6.9-5.6,12.5-12.5,12.5H54.5c-6.9,0-12.5-5.6-12.5-12.5h0c0-6.9,5.6-12.5,12.5-12.5Z"/>
        <text class="cls-25" transform="translate(124.75 595.3)"><tspan x="0" y="0">Vision commune</tspan></text>
        <path class="cls-11" d="M328.05,578.8h229.45c6.9,0,12.5,5.6,12.5,12.5h0c0,6.9-5.6,12.5-12.5,12.5h-229.45c-6.9,0-12.5-5.6-12.5-12.5h0c0-6.9,5.6-12.5,12.5-12.5Z"/>
        <text class="cls-25" transform="translate(398.44 595.3)"><tspan class="cls-41" x="0" y="0">A</tspan><tspan x="7.88" y="0">ction collecti</tspan><tspan class="cls-39" x="75.92" y="0">v</tspan><tspan x="82.2" y="0">e</tspan></text>
        <text class="cls-22" transform="translate(273.89 622.8)"><tspan x="0" y="0">menant à un</tspan></text>
        <path class="cls-13" d="M54.5,631.8h503c6.9,0,12.5,5.6,12.5,12.5h0c0,6.9-5.6,12.5-12.5,12.5H54.5c-6.9,0-12.5-5.6-12.5-12.5h0c0-6.9,5.6-12.5,12.5-12.5Z"/>
        <text class="cls-18" transform="translate(202.13 648.3)"><tspan x="0" y="0">Im</tspan><tspan class="cls-69" x="13" y="0">p</tspan><tspan x="19.95" y="0">act collectif sur les p</tspan><tspan class="cls-65" x="129.45" y="0">r</tspan><tspan x="133.91" y="0">io</tspan><tspan class="cls-65" x="143.49" y="0">r</tspan><tspan class="cls-29" x="147.95" y="0">i</tspan><tspan class="cls-52" x="150.88" y="0">t</tspan><tspan x="154.82" y="0">és lo</tspan><tspan class="cls-69" x="179.49" y="0">c</tspan><tspan x="185.98" y="0">ales</tspan></text>
        <text class="cls-4" transform="translate(64.54 669.8)"><tspan class="cls-54" x="0" y="0">(</tspan><tspan class="cls-38" x="3.73" y="0">e</tspan><tspan x="9.68" y="0">x : sécu</tspan><tspan class="cls-71" x="49.09" y="0">r</tspan><tspan class="cls-30" x="53.18" y="0">i</tspan><tspan class="cls-56" x="55.79" y="0">t</tspan><tspan x="59.25" y="0">é alimen</tspan><tspan class="cls-56" x="102.43" y="0">t</tspan><tspan x="105.89" y="0">ai</tspan><tspan class="cls-48" x="115.11" y="0">r</tspan><tspan x="118.95" y="0">e, logement, inse</tspan><tspan class="cls-62" x="205.68" y="0">r</tspan><tspan x="209.86" y="0">tion sociop</tspan><tspan class="cls-48" x="265.9" y="0">r</tspan><tspan x="269.74" y="0">o</tspan><tspan class="cls-37" x="276.21" y="0">f</tspan><tspan x="279.88" y="0">essionnelle, d</tspan><tspan class="cls-45" x="349.51" y="0">év</tspan><tspan x="361.36" y="0">eloppement de l</tspan><tspan class="cls-42" x="443.25" y="0">&apos;</tspan><tspan x="446.19" y="0">en</tspan><tspan class="cls-37" x="458.8" y="0">f</tspan><tspan x="462.47" y="0">ant)</tspan></text>
        <text class="cls-22" transform="translate(252.36 690.8)"><tspan class="cls-44" x="0" y="0">a</tspan><tspan class="cls-45" x="6.45" y="0">y</tspan><tspan x="12.29" y="0">ant comme final</tspan><tspan class="cls-30" x="95.01" y="0">i</tspan><tspan class="cls-56" x="97.61" y="0">t</tspan><tspan x="101.07" y="0">é</tspan></text>
        <path class="cls-10" d="M54.5,699.8h503c6.9,0,12.5,5.6,12.5,12.5h0c0,6.9-5.6,12.5-12.5,12.5H54.5c-6.9,0-12.5-5.6-12.5-12.5h0c0-6.9,5.6-12.5,12.5-12.5Z"/>
        <text class="cls-18" transform="translate(261.11 716.3)"><tspan class="cls-33" x="0" y="0">L</tspan><tspan class="cls-41" x="5.2" y="0">&apos;</tspan><tspan x="8.51" y="0">équ</tspan><tspan class="cls-29" x="28.58" y="0">i</tspan><tspan class="cls-52" x="31.52" y="0">t</tspan><tspan x="35.45" y="0">é en san</tspan><tspan class="cls-52" x="79.38" y="0">t</tspan><tspan x="83.32" y="0">é</tspan></text>
        <g>
          <line class="cls-12" x1="306.64" y1="591.3" x2="302.32" y2="591.3"/>
          <path class="cls-3" d="M311.68,591.3l-5.65,2.52v-5.05l5.65,2.52Z"/>
        </g>
        <text class="cls-16" transform="translate(207.42 280.96)"><tspan x="0" y="0">aux cô</tspan><tspan class="cls-56" x="34.61" y="0">t</tspan><tspan x="38.06" y="0">és de nomb</tspan><tspan class="cls-43" x="97.86" y="0">r</tspan><tspan x="101.71" y="0">eux aut</tspan><tspan class="cls-43" x="139.85" y="0">r</tspan><tspan class="cls-28" x="143.7" y="0">es ac</tspan><tspan class="cls-56" x="171.41" y="0">t</tspan><tspan class="cls-28" x="174.87" y="0">eurs</tspan></text>
      </g>
    </g>
  </g>
</svg>